<svg width="281" height="124" viewBox="0 0 281 124" fill="none" xmlns="http://www.w3.org/2000/svg">
<path d="M19.2395 22.8289C20.3049 22.8276 21.3703 22.8263 22.468 22.825C23.5747 22.8289 24.6813 22.8327 25.8215 22.8367C26.9398 22.8328 28.058 22.829 29.2102 22.825C30.8025 22.8269 30.8025 22.8269 32.427 22.8289C33.4018 22.83 34.3765 22.8312 35.3808 22.8323C37.634 22.9617 37.634 22.9617 38.634 23.9617C38.7365 25.8427 38.7697 27.7276 38.7759 29.6114C38.7829 30.8197 38.7899 32.0279 38.7972 33.2728C38.8013 34.5894 38.8055 35.906 38.8098 37.2625C38.8202 38.6191 38.8316 39.9758 38.844 41.3324C38.8966 47.1058 38.9445 52.8792 38.9599 58.6529C38.97 62.1815 38.9994 65.7096 39.0413 69.238C39.0596 71.2365 39.0569 73.2352 39.054 75.2338C39.0705 76.4515 39.087 77.6692 39.104 78.9239C39.1099 79.9956 39.1157 81.0674 39.1218 82.1716C39.7577 85.6354 40.8506 86.8614 43.634 88.9617C46.9662 88.7697 46.9662 88.7697 49.634 86.9617C49.7577 84.9988 49.812 83.0316 49.8393 81.065C49.8693 79.1731 49.8693 79.1731 49.8998 77.2431C49.9168 75.8563 49.9336 74.4696 49.9504 73.0828C49.971 71.6718 49.992 70.2607 50.0134 68.8497C50.0687 65.1294 50.1181 61.409 50.1662 57.6886C50.2164 53.8948 50.2721 50.1011 50.3274 46.3074C50.435 38.8589 50.5365 31.4104 50.634 23.9617C53.7972 22.3801 57.1969 22.8198 60.6692 22.8289C61.86 22.8275 61.86 22.8275 63.0748 22.826C64.7535 22.8253 66.4322 22.8272 68.1108 22.8313C70.6896 22.8367 73.2682 22.8314 75.8469 22.825C77.4752 22.8257 79.1034 22.8269 80.7317 22.8289C81.5077 22.8269 82.2837 22.8249 83.0833 22.8228C88.5191 22.8468 88.5191 22.8468 89.634 23.9617C89.7382 25.7031 89.7726 27.4487 89.7793 29.1932C89.7857 30.3123 89.792 31.4315 89.7986 32.5846C89.7997 33.8073 89.8008 35.03 89.802 36.2898C89.807 38.1725 89.807 38.1725 89.8121 40.0932C89.8172 42.7633 89.8199 45.4333 89.8193 48.1033C89.8192 50.8208 89.8261 53.5382 89.8398 56.2557C89.8583 60.1838 89.8631 64.1117 89.8645 68.0398C89.8717 69.2383 89.8789 70.4367 89.8863 71.6715C89.8467 86.5659 88.2637 100.736 77.634 111.962C67.8483 120.524 57.7694 123.284 45.009 123.399C43.7032 123.415 43.7032 123.415 42.3711 123.43C30.5998 123.271 21.6988 119.321 12.9465 111.587C12.1834 110.72 11.4203 109.854 10.634 108.962C10.1416 108.458 9.64918 107.954 9.14183 107.434C-1.33876 95.5199 0.00262932 77.148 0.112536 62.3497C0.134178 58.8739 0.112535 55.4003 0.0871456 51.9246C0.0897858 49.6961 0.0949042 47.4676 0.102771 45.2391C0.0946737 44.2098 0.0865768 43.1806 0.0782345 42.1201C0.159629 35.8655 0.921553 32.0544 4.63402 26.9617C9.32881 23.4406 13.4811 22.8355 19.2395 22.8289Z" fill="#2D55A1"/>
<path d="M167.611 49.4656C172.535 53.1063 175.993 57.6712 177.174 63.7343C177.603 66.7471 177.755 69.5606 177.748 72.5999C177.747 74.2209 177.747 74.2209 177.747 75.8746C177.742 77.0249 177.737 78.1751 177.732 79.3602C177.73 80.5502 177.729 81.7403 177.727 82.9665C177.722 86.7566 177.709 90.5466 177.697 94.3367C177.692 96.9109 177.687 99.4852 177.683 102.059C177.673 108.36 177.653 114.661 177.634 120.962C166.084 120.962 154.534 120.962 142.634 120.962C142.585 118.037 142.536 115.112 142.486 112.098C142.432 109.269 142.374 106.439 142.317 103.609C142.278 101.641 142.244 99.6733 142.212 97.7051C142.167 94.8776 142.109 92.0506 142.048 89.2234C142.037 88.3421 142.025 87.4608 142.013 86.5527C141.993 85.7321 141.973 84.9115 141.953 84.066C141.94 83.3443 141.926 82.6226 141.913 81.879C141.727 79.6357 141.727 79.6357 139.634 76.9617C137.657 76.5987 137.657 76.5987 135.509 76.7742C134.23 76.8361 132.952 76.898 131.634 76.9617C130.313 80.9364 130.526 84.9531 130.572 89.0867C130.575 89.8706 130.579 90.6545 130.583 91.4622C130.595 93.9621 130.614 96.4619 130.634 98.9617C130.661 102.253 130.681 105.545 130.697 108.837C130.705 109.591 130.713 110.345 130.722 111.122C130.738 114.659 130.499 117.5 129.634 120.962C118.084 120.962 106.534 120.962 94.6341 120.962C94.5921 112.971 94.552 104.982 94.5306 96.9913C94.52 93.2702 94.5059 89.5492 94.4832 85.8282C94.4614 82.2426 94.4495 78.657 94.4443 75.0714C94.4406 73.7051 94.4334 72.3388 94.4226 70.9725C94.408 69.0553 94.4072 67.138 94.407 65.2207C94.4026 64.1304 94.3981 63.0401 94.3936 61.9167C94.7083 58.049 95.6315 55.1659 98.1223 52.1741C104.299 47.09 109.879 47.2403 117.634 47.5867C119.368 47.6273 119.368 47.6273 121.138 47.6687C123.972 47.739 126.802 47.8373 129.634 47.9617C130.129 51.4267 130.129 51.4267 130.634 54.9617C131.27 54.3642 131.27 54.3642 131.919 53.7547C142.038 44.6141 155.346 42.2737 167.611 49.4656Z" fill="#2C54A1"/>
<path d="M252.275 23.864C253.721 23.8678 253.721 23.8678 255.198 23.8716C257.022 23.8853 257.022 23.8853 258.884 23.8992C262.762 23.9198 266.639 23.9405 270.634 23.9617C270.634 31.8817 270.634 39.8017 270.634 47.9617C273.934 47.9617 277.234 47.9617 280.634 47.9617C280.634 57.2017 280.634 66.4417 280.634 75.9617C277.334 75.9617 274.034 75.9617 270.634 75.9617C270.634 90.8117 270.634 105.662 270.634 120.962C258.754 120.962 246.874 120.962 234.634 120.962C233.509 114.212 233.509 114.212 233.521 110.792C233.521 110.032 233.521 109.272 233.521 108.488C233.526 107.688 233.531 106.888 233.536 106.063C233.538 105.228 233.539 104.393 233.541 103.533C233.546 100.884 233.559 98.2355 233.572 95.5867C233.577 93.7833 233.581 91.9799 233.585 90.1766C233.596 85.7716 233.613 81.3667 233.634 76.9617C230.664 76.6317 227.694 76.3017 224.634 75.9617C224.634 66.7217 224.634 57.4817 224.634 47.9617C227.604 47.9617 230.574 47.9617 233.634 47.9617C233.572 46.6623 233.51 45.363 233.447 44.0242C233.473 38.3643 234.255 32.7608 238.029 28.3211C242.617 24.2788 246.368 23.8326 252.275 23.864Z" fill="#2D55A1"/>
<path d="M183.634 47.9617C195.514 47.9617 207.394 47.9617 219.634 47.9617C219.794 63.6933 219.794 63.6933 219.829 70.4187C219.853 75.0011 219.881 79.5832 219.936 84.1653C219.979 87.8612 220.003 91.5567 220.014 95.2528C220.021 96.6602 220.035 98.0676 220.057 99.4748C220.086 101.452 220.088 103.429 220.088 105.406C220.097 106.529 220.106 107.653 220.115 108.811C219.404 113.469 217.064 116.521 213.791 119.818C210.805 121.401 208.486 121.301 205.118 121.255C203.868 121.245 202.618 121.235 201.329 121.225C199.376 121.188 199.376 121.188 197.384 121.149C196.067 121.136 194.749 121.122 193.392 121.108C190.139 121.073 186.887 121.023 183.634 120.962C181.921 117.536 182.493 113.606 182.501 109.837C182.5 108.91 182.499 107.983 182.497 107.028C182.495 104.006 182.502 100.984 182.509 97.9617C182.51 96.9432 182.511 95.9246 182.512 94.8752C182.528 79.206 182.866 63.614 183.634 47.9617Z" fill="#2E56A0"/>
<path d="M213.634 2.96171C213.634 3.62172 213.634 4.28172 213.634 4.96172C214.211 5.02359 214.789 5.08547 215.384 5.14922C219.158 6.51211 220.818 9.30508 222.552 12.825C225.453 19.8394 225.179 25.7956 222.614 32.8875C221.169 35.9458 219.214 37.8115 216.634 39.9617C215.871 40.6836 215.108 41.4055 214.321 42.1492C208.683 45.9521 202.761 46.5057 196.157 45.6219C189.848 43.9712 185.167 40.253 181.634 34.8367C178.403 29.2497 177.633 23.1724 179.13 16.8758C181.421 10.1209 185.368 5.0126 191.755 1.71562C199.339 -1.32748 206.2 0.483793 213.634 2.96171ZM188.634 7.96172C190.279 9.28747 190.279 9.28747 192.634 9.96171C195.868 8.67849 195.868 8.67849 198.634 6.96172C197.974 6.63172 197.314 6.30172 196.634 5.96172C196.634 5.30172 196.634 4.64171 196.634 3.96171C193.352 3.96171 191.255 6.13828 188.634 7.96172ZM214.634 14.9617C212.368 17.7173 212.368 17.7173 212.759 20.5242C213.048 21.3286 213.336 22.133 213.634 22.9617C214.294 23.2711 214.954 23.5805 215.634 23.8992C216.294 24.2498 216.954 24.6005 217.634 24.9617C218.384 28.0867 218.384 28.0867 218.634 30.9617C219.294 30.6317 219.954 30.3017 220.634 29.9617C220.742 28.0254 220.82 26.0874 220.884 24.1492C220.93 23.0703 220.977 21.9913 221.025 20.8797C220.922 17.8671 220.922 17.8671 218.743 16.075C216.737 14.8061 216.737 14.8061 214.634 14.9617ZM190.634 17.9617C190.448 19.2611 190.263 20.5605 190.071 21.8992C189.967 22.6301 189.863 23.361 189.755 24.1141C189.715 24.7238 189.675 25.3335 189.634 25.9617C189.964 26.2917 190.294 26.6217 190.634 26.9617C190.775 29.6323 190.676 32.286 190.634 34.9617C195.227 33.4757 198.07 31.1116 201.634 27.9617C200.098 24.5063 198.237 21.713 195.634 18.9617C192.999 18.0823 192.999 18.0823 190.634 17.9617ZM215.634 34.9617C216.634 36.9617 216.634 36.9617 216.634 36.9617L215.634 34.9617Z" fill="#F8B905"/>
<path d="M213.634 2.96171C213.634 3.62171 213.634 4.28171 213.634 4.96171C214.294 5.29171 214.954 5.62171 215.634 5.96171C214.73 5.85472 213.827 5.74773 212.896 5.63749C211.127 5.45767 211.127 5.45767 209.322 5.27421C207.564 5.08278 207.564 5.08278 205.771 4.88749C202.65 4.63792 202.65 4.63792 200.841 6.44218C200.443 6.94362 200.044 7.44507 199.634 7.96171C198.974 7.96171 198.314 7.96171 197.634 7.96171C197.634 8.62171 197.634 9.28171 197.634 9.96171C196.644 9.96171 195.654 9.96171 194.634 9.96171C194.304 11.6117 193.974 13.2617 193.634 14.9617C192.974 13.6417 192.314 12.3217 191.634 10.9617C190.644 11.4567 190.644 11.4567 189.634 11.9617C189.634 13.2817 189.634 14.6017 189.634 15.9617C191.944 16.2917 194.254 16.6217 196.634 16.9617C196.964 17.9517 197.294 18.9417 197.634 19.9617C198.294 19.9617 198.954 19.9617 199.634 19.9617C202.066 23.3285 202.634 24.6952 202.634 28.9617C201.974 28.9617 201.314 28.9617 200.634 28.9617C200.634 29.6217 200.634 30.2817 200.634 30.9617C201.294 31.2917 201.954 31.6217 202.634 31.9617C200.654 32.9517 198.674 33.9417 196.634 34.9617C196.634 35.9517 196.634 36.9417 196.634 37.9617C196.634 38.9517 196.634 39.9417 196.634 40.9617C202.574 40.9617 208.514 40.9617 214.634 40.9617C210.585 45.0104 206.747 45.8216 201.204 46.0711C194.447 45.7764 189.611 43.5265 184.634 38.9617C179.682 32.8042 177.841 26.8944 178.634 18.9617C180.282 12.0321 183.859 6.51791 189.947 2.64921C198.015 -1.51569 205.447 0.232853 213.634 2.96171ZM188.634 7.96171C190.279 9.28747 190.279 9.28747 192.634 9.96171C195.868 8.67849 195.868 8.67849 198.634 6.96171C197.974 6.63171 197.314 6.30171 196.634 5.96171C196.634 5.30171 196.634 4.64171 196.634 3.96171C193.352 3.96171 191.255 6.13827 188.634 7.96171ZM190.634 17.9617C190.448 19.2611 190.263 20.5605 190.072 21.8992C189.967 22.6301 189.863 23.361 189.755 24.1141C189.715 24.7238 189.675 25.3335 189.634 25.9617C189.964 26.2917 190.294 26.6217 190.634 26.9617C190.775 29.6323 190.677 32.286 190.634 34.9617C195.227 33.4757 198.07 31.1116 201.634 27.9617C200.098 24.5063 198.237 21.713 195.634 18.9617C192.999 18.0823 192.999 18.0823 190.634 17.9617Z" fill="#F5BB18"/>
<path d="M213.634 2.96171C213.634 3.62172 213.634 4.28172 213.634 4.96172C214.294 5.29172 214.954 5.62172 215.634 5.96172C214.73 5.85472 213.827 5.74773 212.896 5.6375C211.126 5.45767 211.126 5.45767 209.321 5.27422C207.564 5.08279 207.564 5.08279 205.771 4.8875C202.65 4.63793 202.65 4.63793 200.841 6.44218C200.443 6.94363 200.044 7.44507 199.634 7.96172C198.974 7.96172 198.314 7.96172 197.634 7.96172C197.634 8.62172 197.634 9.28171 197.634 9.96171C196.644 9.96171 195.654 9.96171 194.634 9.96171C194.304 11.6117 193.974 13.2617 193.634 14.9617C192.974 13.6417 192.314 12.3217 191.634 10.9617C190.644 11.4567 190.644 11.4567 189.634 11.9617C189.634 13.2817 189.634 14.6017 189.634 15.9617C191.944 16.2917 194.254 16.6217 196.634 16.9617C196.964 17.9517 197.294 18.9417 197.634 19.9617C198.294 19.9617 198.954 19.9617 199.634 19.9617C202.066 23.3286 202.634 24.6952 202.634 28.9617C200.072 27.6809 199.869 26.5052 198.634 23.9617C196.454 20.4324 194.571 19.2386 190.634 17.9617C190.304 20.6017 189.974 23.2417 189.634 25.9617C188.974 25.9617 188.314 25.9617 187.634 25.9617C187.964 22.3317 188.294 18.7017 188.634 14.9617C187.644 14.9617 186.654 14.9617 185.634 14.9617C184.974 14.3017 184.314 13.6417 183.634 12.9617C181.233 16.5635 181.196 19.4704 181.009 23.6492C180.97 24.3511 180.932 25.053 180.892 25.7762C180.798 27.5043 180.715 29.233 180.634 30.9617C178.064 26.333 177.915 21.9603 179.134 16.8758C181.412 10.1185 185.372 5.01061 191.755 1.71562C199.339 -1.32748 206.2 0.483793 213.634 2.96171ZM188.634 7.96172C190.279 9.28747 190.279 9.28747 192.634 9.96171C195.868 8.67849 195.868 8.67849 198.634 6.96172C197.974 6.63172 197.314 6.30172 196.634 5.96172C196.634 5.30172 196.634 4.64171 196.634 3.96171C193.352 3.96171 191.255 6.13828 188.634 7.96172Z" fill="#E5C04E"/>
<path d="M215.634 5.96172C216.294 5.96172 216.954 5.96172 217.634 5.96172C222.201 10.6759 224.306 15.9565 225.009 22.3992C224.238 29.7253 222.488 35.1584 216.634 39.9617C215.644 40.4567 215.644 40.4567 214.634 40.9617C214.509 38.5867 214.509 38.5867 214.634 35.9617C215.294 35.3017 215.954 34.6417 216.634 33.9617C216.658 31.9686 216.658 31.9686 216.259 29.8367C216.053 28.558 215.847 27.2792 215.634 25.9617C214.314 25.6317 212.994 25.3017 211.634 24.9617C211.634 21.9917 211.634 19.0217 211.634 15.9617C212.294 15.9617 212.954 15.9617 213.634 15.9617C213.778 14.683 213.923 13.4042 214.072 12.0867C214.34 9.70479 214.556 8.11719 215.634 5.96172ZM214.634 14.9617C212.368 17.7173 212.368 17.7173 212.759 20.5242C213.048 21.3286 213.337 22.133 213.634 22.9617C214.294 23.2711 214.954 23.5805 215.634 23.8992C216.294 24.2498 216.954 24.6005 217.634 24.9617C218.384 28.0867 218.384 28.0867 218.634 30.9617C219.294 30.6317 219.954 30.3017 220.634 29.9617C220.742 28.0254 220.82 26.0874 220.884 24.1492C220.93 23.0703 220.977 21.9913 221.025 20.8797C220.922 17.8671 220.922 17.8671 218.743 16.075C216.737 14.8061 216.737 14.8061 214.634 14.9617Z" fill="#E2CC7D"/>
<path d="M183.634 11.9617C184.294 12.2917 184.954 12.6217 185.634 12.9617C185.634 13.6217 185.634 14.2817 185.634 14.9617C186.624 14.9617 187.614 14.9617 188.634 14.9617C188.304 18.5917 187.974 22.2217 187.634 25.9617C188.294 25.9617 188.954 25.9617 189.634 25.9617C189.634 29.5917 189.634 33.2217 189.634 36.9617C188.644 36.9617 187.654 36.9617 186.634 36.9617C186.304 34.6517 185.974 32.3417 185.634 29.9617C185.304 30.6217 184.974 31.2817 184.634 31.9617C183.314 31.6317 181.994 31.3017 180.634 30.9617C180.553 28.5444 180.493 26.1298 180.447 23.7117C180.421 23.0298 180.396 22.3479 180.37 21.6453C180.323 18.3697 180.423 16.3082 182.146 13.4773C182.637 12.9772 183.128 12.477 183.634 11.9617Z" fill="#F7B809"/>
<path d="M180.634 30.9617C181.624 31.2917 182.614 31.6217 183.634 31.9617C184.822 35.0242 184.822 35.0242 185.634 37.9617C186.954 37.9617 188.274 37.9617 189.634 37.9617C189.634 38.9517 189.634 39.9417 189.634 40.9617C190.212 41.1061 190.789 41.2505 191.384 41.3992C192.757 41.7425 194.127 42.1008 195.49 42.4852C197.779 42.9938 199.853 43.1294 202.197 43.1492C203.343 43.1705 203.343 43.1705 204.513 43.1922C206.936 43.0941 206.936 43.0941 209.634 40.9617C212.322 40.8367 212.322 40.8367 214.634 40.9617C212.389 44.0487 209.589 44.8894 205.939 45.6648C198.329 46.6451 192.732 45.1924 186.552 40.6531C183.879 38.2963 182.284 36.119 180.634 32.9617C180.634 32.3017 180.634 31.6417 180.634 30.9617Z" fill="#E7C870"/>
<path d="M215.634 5.96172C217.634 5.96172 217.634 5.96172 219.322 7.58672C221.064 10.74 220.488 12.5459 219.634 15.9617C217.984 15.6317 216.334 15.3017 214.634 14.9617C213.974 18.2617 213.314 21.5617 212.634 24.9617C212.304 24.9617 211.974 24.9617 211.634 24.9617C211.634 21.9917 211.634 19.0217 211.634 15.9617C212.294 15.9617 212.954 15.9617 213.634 15.9617C213.778 14.683 213.923 13.4042 214.072 12.0867C214.34 9.70479 214.556 8.11719 215.634 5.96172Z" fill="#E8C558"/>
<path d="M189.634 25.9617C190.294 26.2917 190.954 26.6217 191.634 26.9617C191.304 29.6017 190.974 32.2417 190.634 34.9617C193.934 32.9817 197.234 31.0017 200.634 28.9617C200.634 29.6217 200.634 30.2817 200.634 30.9617C201.294 31.2917 201.954 31.6217 202.634 31.9617C201.706 32.4155 200.778 32.8692 199.822 33.3367C196.595 34.9039 196.595 34.9039 193.634 36.9617C190.947 36.5867 190.947 36.5867 188.634 35.9617C188.964 32.6617 189.294 29.3617 189.634 25.9617Z" fill="#EBC44C"/>
<path d="M213.634 22.9617C214.954 23.2917 216.274 23.6217 217.634 23.9617C217.634 26.9317 217.634 29.9017 217.634 32.9617C218.624 32.9617 219.614 32.9617 220.634 32.9617C220.093 36.7514 218.475 38.4758 215.634 40.9617C215.304 40.9617 214.974 40.9617 214.634 40.9617C214.509 38.5867 214.509 38.5867 214.634 35.9617C215.294 35.3017 215.954 34.6417 216.634 33.9617C216.733 32.005 216.733 32.005 216.384 29.8992C216.296 29.1864 216.209 28.4735 216.118 27.7391C215.879 26.8593 215.879 26.8593 215.634 25.9617C214.974 25.6317 214.314 25.3017 213.634 24.9617C213.634 24.3017 213.634 23.6417 213.634 22.9617Z" fill="#DEC266"/>
<path d="M180.634 30.9617C181.624 31.2917 182.614 31.6217 183.634 31.9617C184.822 35.0242 184.822 35.0242 185.634 37.9617C186.954 37.9617 188.274 37.9617 189.634 37.9617C189.634 38.9517 189.634 39.9417 189.634 40.9617C186.545 40.6307 185.631 39.9589 183.447 37.6492C181.84 35.267 181.048 33.7579 180.634 30.9617Z" fill="#E9C253"/>
<path d="M220.634 10.9617C222.579 13.8794 223.087 15.5871 223.634 18.9617C223.304 18.9617 222.974 18.9617 222.634 18.9617C222.304 21.2717 221.974 23.5817 221.634 25.9617C221.304 25.9617 220.974 25.9617 220.634 25.9617C220.634 23.3217 220.634 20.6817 220.634 17.9617C219.644 17.6317 218.654 17.3017 217.634 16.9617C218.294 16.6317 218.954 16.3017 219.634 15.9617C220.29 13.4344 220.29 13.4344 220.634 10.9617Z" fill="#ECD88B"/>
<path d="M194.634 16.9617C195.624 17.2917 196.614 17.6217 197.634 17.9617C197.634 18.6217 197.634 19.2817 197.634 19.9617C198.294 19.9617 198.954 19.9617 199.634 19.9617C202.066 23.3286 202.634 24.6952 202.634 28.9617C200.072 27.6809 199.869 26.5052 198.634 23.9617C196.747 21.1716 195.5 19.8723 192.634 17.9617C193.294 17.6317 193.954 17.3017 194.634 16.9617Z" fill="#ECCE63"/>
<path d="M213.634 28.9617C214.624 28.9617 215.614 28.9617 216.634 28.9617C216.847 33.4301 216.225 36.7843 214.634 40.9617C214.304 40.9617 213.974 40.9617 213.634 40.9617C213.439 39.3376 213.253 37.7124 213.072 36.0867C212.967 35.1818 212.863 34.2769 212.755 33.3445C212.634 30.9617 212.634 30.9617 213.634 28.9617Z" fill="#EEB81A"/>
<path d="M189.634 10.9617C190.294 10.9617 190.954 10.9617 191.634 10.9617C191.964 11.6217 192.294 12.2817 192.634 12.9617C193.294 12.6317 193.954 12.3017 194.634 11.9617C194.964 13.6117 195.294 15.2617 195.634 16.9617C192.664 16.4667 192.664 16.4667 189.634 15.9617C189.072 14.0242 189.072 14.0242 188.634 11.9617C188.964 11.6317 189.294 11.3017 189.634 10.9617Z" fill="#F1BA19"/>
<path d="M212.634 5.96172C213.624 5.96172 214.614 5.96172 215.634 5.96172C214.974 9.26172 214.314 12.5617 213.634 15.9617C213.304 15.9617 212.974 15.9617 212.634 15.9617C212.44 14.4834 212.254 13.004 212.072 11.5242C211.967 10.7005 211.863 9.87679 211.755 9.02812C211.715 8.34621 211.675 7.66429 211.634 6.96172C211.964 6.63172 212.294 6.30172 212.634 5.96172Z" fill="#EBBD2B"/>
<path d="M183.634 11.9617C184.294 12.2917 184.954 12.6217 185.634 12.9617C185.634 13.6217 185.634 14.2817 185.634 14.9617C186.624 14.9617 187.614 14.9617 188.634 14.9617C188.634 16.9417 188.634 18.9217 188.634 20.9617C187.258 19.6721 185.926 18.3348 184.634 16.9617C184.634 16.3017 184.634 15.6417 184.634 14.9617C183.974 14.9617 183.314 14.9617 182.634 14.9617C182.964 13.9717 183.294 12.9817 183.634 11.9617Z" fill="#EFB716"/>
</svg>
